<svg width="1165" height="299" viewBox="0 0 1165 299" fill="none" xmlns="http://www.w3.org/2000/svg">
<path d="M253.841 135.049H336.222V165.85H253.841V135.049ZM256.774 205.451H349.911V237.23H217.417V66.1129H346.733V97.8918H256.774V205.451ZM360.438 237.23L419.351 159.983L418.618 181.006L362.149 105.714H404.928L440.618 154.849L424.484 155.338L461.397 105.714H501.976L445.263 180.272V159.738L503.932 237.23H460.664L423.262 184.917L439.152 187.117L401.995 237.23H360.438ZM600.179 239.186C589.098 239.186 579.401 236.741 571.089 231.852C562.778 226.963 556.259 219.548 551.533 209.607C546.97 199.503 544.689 186.791 544.689 171.472C544.689 155.99 546.889 143.279 551.289 133.337C555.689 123.396 562.045 115.981 570.356 111.092C578.668 106.203 588.609 103.759 600.179 103.759C612.565 103.759 623.647 106.611 633.425 112.315C643.366 117.855 651.189 125.678 656.893 135.782C662.759 145.886 665.693 157.783 665.693 171.472C665.693 185.324 662.759 197.303 656.893 207.407C651.189 217.511 643.366 225.333 633.425 230.874C623.647 236.415 612.565 239.186 600.179 239.186ZM522.443 284.654V105.714H558.867V132.604L558.133 171.717L560.578 210.585V284.654H522.443ZM593.579 207.896C599.935 207.896 605.557 206.429 610.446 203.496C615.498 200.562 619.491 196.406 622.425 191.028C625.521 185.487 627.069 178.969 627.069 171.472C627.069 163.813 625.521 157.294 622.425 151.916C619.491 146.538 615.498 142.382 610.446 139.449C605.557 136.515 599.935 135.049 593.579 135.049C587.223 135.049 581.519 136.515 576.467 139.449C571.415 142.382 567.423 146.538 564.489 151.916C561.556 157.294 560.089 163.813 560.089 171.472C560.089 178.969 561.556 185.487 564.489 191.028C567.423 196.406 571.415 200.562 576.467 203.496C581.519 206.429 587.223 207.896 593.579 207.896ZM691.221 237.23V55.8458H729.356V237.23H691.221ZM827.328 239.186C813.313 239.186 800.845 236.252 789.927 230.385C779.171 224.518 770.615 216.533 764.259 206.429C758.066 196.162 754.97 184.51 754.97 171.472C754.97 158.272 758.066 146.619 764.259 136.515C770.615 126.248 779.171 118.263 789.927 112.559C800.845 106.692 813.313 103.759 827.328 103.759C841.18 103.759 853.566 106.692 864.485 112.559C875.404 118.263 883.96 126.167 890.152 136.271C896.345 146.375 899.442 158.109 899.442 171.472C899.442 184.51 896.345 196.162 890.152 206.429C883.96 216.533 875.404 224.518 864.485 230.385C853.566 236.252 841.18 239.186 827.328 239.186ZM827.328 207.896C833.684 207.896 839.388 206.429 844.44 203.496C849.492 200.562 853.484 196.406 856.418 191.028C859.351 185.487 860.818 178.969 860.818 171.472C860.818 163.813 859.351 157.294 856.418 151.916C853.484 146.538 849.492 142.382 844.44 139.449C839.388 136.515 833.684 135.049 827.328 135.049C820.972 135.049 815.268 136.515 810.216 139.449C805.164 142.382 801.09 146.538 797.994 151.916C795.06 157.294 793.593 163.813 793.593 171.472C793.593 178.969 795.06 185.487 797.994 191.028C801.09 196.406 805.164 200.562 810.216 203.496C815.268 206.429 820.972 207.896 827.328 207.896ZM924.931 237.23V105.714H961.355V142.871L956.221 132.115C960.133 122.826 966.407 115.818 975.044 111.092C983.682 106.203 994.193 103.759 1006.58 103.759V138.96C1004.95 138.797 1003.48 138.715 1002.18 138.715C1000.87 138.552 999.49 138.471 998.023 138.471C987.593 138.471 979.119 141.486 972.6 147.516C966.244 153.383 963.066 162.59 963.066 175.139V237.23H924.931ZM1093.33 239.186C1078.34 239.186 1065.14 236.252 1053.73 230.385C1042.48 224.518 1033.76 216.533 1027.57 206.429C1021.38 196.162 1018.28 184.51 1018.28 171.472C1018.28 158.272 1021.3 146.619 1027.33 136.515C1033.52 126.248 1041.91 118.263 1052.51 112.559C1063.1 106.692 1075.08 103.759 1088.44 103.759C1101.31 103.759 1112.89 106.529 1123.15 112.07C1133.58 117.448 1141.81 125.271 1147.84 135.538C1153.87 145.642 1156.89 157.783 1156.89 171.961C1156.89 173.428 1156.81 175.139 1156.64 177.095C1156.48 178.887 1156.32 180.598 1156.15 182.228H1049.33V159.983H1136.11L1121.44 166.583C1121.44 159.738 1120.06 153.79 1117.29 148.738C1114.52 143.686 1110.69 139.775 1105.8 137.004C1100.91 134.071 1095.2 132.604 1088.68 132.604C1082.17 132.604 1076.38 134.071 1071.33 137.004C1066.44 139.775 1062.61 143.767 1059.84 148.982C1057.07 154.035 1055.68 160.064 1055.68 167.072V172.939C1055.68 180.11 1057.23 186.465 1060.33 192.006C1063.59 197.384 1068.07 201.54 1073.77 204.473C1079.64 207.244 1086.48 208.629 1094.31 208.629C1101.31 208.629 1107.43 207.57 1112.64 205.451C1118.02 203.333 1122.91 200.155 1127.31 195.917L1147.6 217.918C1141.57 224.763 1133.99 230.059 1124.86 233.808C1115.74 237.393 1105.23 239.186 1093.33 239.186Z" fill="white" fill-opacity="0.65"/>
<circle cx="90.2465" cy="150.73" r="90.2465" fill="white" fill-opacity="0.65"/>
</svg>
